<?xml version="1.0" encoding="UTF-8"?>
<svg enable-background="new 0 0 512.002 512.002" fill="#1073E5" version="1.1" viewBox="0 0 512 512" xml:space="preserve" xmlns="http://www.w3.org/2000/svg">
<path d="m256 77.017c-107.66 0-195.24 87.589-195.24 195.24 0 107.66 87.589 195.25 195.24 195.25 107.66 0 195.24-87.589 195.24-195.25 0-107.66-87.588-195.24-195.24-195.24zm0 355.11c-88.143 0-159.85-71.715-159.85-159.86s71.709-159.85 159.85-159.85 159.85 71.71 159.85 159.85c0 88.148-71.71 159.86-159.85 159.86z"/>
<path d="m310.27 266.36h-47.188v-68.424c0-9.774-7.922-17.696-17.696-17.696s-17.696 7.922-17.696 17.696v86.12c0 9.774 7.922 17.696 17.696 17.696h64.885c9.774 0 17.696-7.922 17.696-17.696-1e-3 -9.774-7.923-17.696-17.697-17.696z"/>
<path d="m155.77 398.91c-7.267-6.542-18.457-5.946-24.992 1.315l-53.088 58.986c-6.542 7.261-5.946 18.451 1.315 24.987 3.38 3.05 7.615 4.548 11.833 4.548 4.843 0 9.668-1.976 13.16-5.863l53.088-58.986c6.541-7.262 5.945-18.452-1.316-24.987z"/>
<path d="m434.32 459.22-53.088-58.986c-6.524-7.267-17.719-7.857-24.987-1.315-7.267 6.536-7.851 17.725-1.315 24.987l53.088 58.986c3.486 3.881 8.311 5.857 13.154 5.857 4.212 0 8.447-1.498 11.833-4.542 7.267-6.536 7.851-17.726 1.315-24.987z"/>
<path d="m152.76 49.046c-35.162-34.43-91.841-34.377-126.34 0.13-17.166 17.159-26.545 39.863-26.421 63.929 0.13 23.777 9.556 46.039 26.55 62.685 3.445 3.368 7.91 5.049 12.381 5.049 4.53 0 9.06-1.734 12.511-5.179l101.46-101.46c3.339-3.344 5.203-7.881 5.179-12.605-0.023-4.726-1.935-9.244-5.314-12.553zm-111.89 87.128c-3.545-7.143-5.439-15.047-5.48-23.258-0.077-14.534 5.621-28.29 16.05-38.719 10.405-10.399 24.161-15.596 37.993-15.596 8.087 0 16.204 1.775 23.683 5.326l-72.246 72.247z"/>
<path d="m485.58 49.17c-34.507-34.501-91.187-34.56-126.35-0.13-3.374 3.309-5.291 7.828-5.315 12.552-0.024 4.725 1.846 9.267 5.185 12.605l101.46 101.46c3.451 3.457 7.981 5.185 12.511 5.185 4.471 0 8.942-1.681 12.381-5.061 17-16.64 26.426-38.901 26.55-62.679 0.124-24.059-9.261-46.763-26.42-63.928zm-14.451 87.004-72.246-72.246c20.279-9.627 45.189-6.211 61.676 10.275 10.429 10.429 16.127 24.178 16.05 38.719-0.042 8.205-1.935 16.115-5.48 23.252z"/>
</svg>