<?xml version="1.0" encoding="UTF-8"?>
<svg enable-background="new 0 0 16.644 16.644" version="1.1" viewBox="0 0 16.644 16.644" xml:space="preserve" xmlns="http://www.w3.org/2000/svg">
    <g fill="#EF869C">
        <path d="m13.804 4.661 0.659-0.66 0.196 0.195c0.182 0.182 0.477 0.182 0.657 0 0.183-0.181 0.183-0.476 0-0.658l-0.986-0.987c-0.182-0.182-0.477-0.182-0.658 0-0.182 0.183-0.182 0.477 0 0.659l0.218 0.216-0.648 0.648c-1.129-1.043-2.588-1.731-4.203-1.89v-0.605h0.469c0.436 0 0.789-0.354 0.789-0.789 0-0.436-0.354-0.79-0.789-0.79h-2.368c-0.436 0-0.79 0.354-0.79 0.79s0.354 0.789 0.79 0.789h0.52v0.602h-0.029c-1.709 0.163-3.245 0.917-4.4 2.058l-0.403 0.435c-1.091 1.269-1.755 2.915-1.755 4.721 0 4.003 3.246 7.249 7.249 7.249 4.005 0 7.249-3.246 7.249-7.249 1e-3 -1.812-0.669-3.464-1.767-4.734zm-5.491 10.743c-3.326 0-6.022-2.696-6.022-6.022s2.697-6.022 6.022-6.022 6.022 2.696 6.022 6.022-2.697 6.022-6.022 6.022z"/>
		<path d="m8.79 8.843v-3.795l-0.438-0.702-0.498 0.702v3.795c-0.273 0.161-0.458 0.455-0.458 0.795 0 0.511 0.415 0.925 0.925 0.925s0.926-0.414 0.926-0.925c1e-3 -0.34-0.183-0.634-0.457-0.795z"/>
	</g>
</svg>